<mxfile host="app.diagrams.net" agent="Mozilla/5.0 (Windows NT 10.0; Win64; x64) AppleWebKit/537.36 (KHTML, like Gecko) Chrome/141.0.0.0 Safari/537.36" version="28.2.5">
  <diagram name="Page-1" id="Bwvuc-KylbJQ16xNRGNJ">
    <mxGraphModel dx="1158" dy="624" grid="1" gridSize="10" guides="1" tooltips="1" connect="1" arrows="1" fold="1" page="1" pageScale="1" pageWidth="1750" pageHeight="1100" math="0" shadow="0">
      <root>
        <mxCell id="0" />
        <mxCell id="1" parent="0" />
        <mxCell id="SM7hKs_2msH0aA-1Ox_4-1" value="" style="rounded=0;whiteSpace=wrap;html=1;" parent="1" vertex="1">
          <mxGeometry x="222" y="69" width="228" height="40" as="geometry" />
        </mxCell>
        <mxCell id="SM7hKs_2msH0aA-1Ox_4-2" value="&lt;font style=&quot;font-size: 20px;&quot;&gt;&lt;b&gt;User&lt;/b&gt;&lt;/font&gt;" style="text;html=1;align=center;verticalAlign=middle;whiteSpace=wrap;rounded=0;" parent="1" vertex="1">
          <mxGeometry x="211" y="29" width="60" height="30" as="geometry" />
        </mxCell>
        <mxCell id="SM7hKs_2msH0aA-1Ox_4-3" value="uID" style="text;html=1;align=center;verticalAlign=middle;whiteSpace=wrap;rounded=0;fontStyle=5" parent="1" vertex="1">
          <mxGeometry x="215" y="74" width="60" height="30" as="geometry" />
        </mxCell>
        <mxCell id="SM7hKs_2msH0aA-1Ox_4-4" value="&lt;b&gt;username&amp;nbsp; email&amp;nbsp; &amp;nbsp; Pnumber&amp;nbsp; &amp;nbsp; &amp;nbsp;&amp;nbsp;&lt;/b&gt;" style="text;html=1;align=left;verticalAlign=middle;whiteSpace=wrap;rounded=0;" parent="1" vertex="1">
          <mxGeometry x="275" y="79" width="175" height="30" as="geometry" />
        </mxCell>
        <mxCell id="SM7hKs_2msH0aA-1Ox_4-5" value="" style="endArrow=none;html=1;rounded=0;" parent="1" edge="1">
          <mxGeometry width="50" height="50" relative="1" as="geometry">
            <mxPoint x="271" y="109" as="sourcePoint" />
            <mxPoint x="271" y="69" as="targetPoint" />
          </mxGeometry>
        </mxCell>
        <mxCell id="SM7hKs_2msH0aA-1Ox_4-6" value="" style="endArrow=none;html=1;rounded=0;" parent="1" edge="1">
          <mxGeometry width="50" height="50" relative="1" as="geometry">
            <mxPoint x="337" y="109" as="sourcePoint" />
            <mxPoint x="337" y="69" as="targetPoint" />
          </mxGeometry>
        </mxCell>
        <mxCell id="SM7hKs_2msH0aA-1Ox_4-9" value="" style="endArrow=none;html=1;rounded=0;" parent="1" edge="1">
          <mxGeometry width="50" height="50" relative="1" as="geometry">
            <mxPoint x="379" y="109" as="sourcePoint" />
            <mxPoint x="379" y="69" as="targetPoint" />
          </mxGeometry>
        </mxCell>
        <mxCell id="SM7hKs_2msH0aA-1Ox_4-10" value="&lt;font style=&quot;font-size: 20px;&quot;&gt;&lt;b&gt;Buyer&lt;/b&gt;&lt;/font&gt;" style="text;html=1;align=center;verticalAlign=middle;whiteSpace=wrap;rounded=0;" parent="1" vertex="1">
          <mxGeometry x="30" y="109" width="90" height="30" as="geometry" />
        </mxCell>
        <mxCell id="SM7hKs_2msH0aA-1Ox_4-11" value="" style="rounded=0;whiteSpace=wrap;html=1;" parent="1" vertex="1">
          <mxGeometry x="32" y="152.5" width="128" height="47.5" as="geometry" />
        </mxCell>
        <mxCell id="SM7hKs_2msH0aA-1Ox_4-13" value="uID" style="text;html=1;align=center;verticalAlign=middle;whiteSpace=wrap;rounded=0;fontStyle=5" parent="1" vertex="1">
          <mxGeometry x="30" y="160" width="60" height="30" as="geometry" />
        </mxCell>
        <mxCell id="SM7hKs_2msH0aA-1Ox_4-14" value="" style="endArrow=none;html=1;rounded=0;exitX=0.422;exitY=0.954;exitDx=0;exitDy=0;exitPerimeter=0;" parent="1" edge="1" source="SM7hKs_2msH0aA-1Ox_4-11">
          <mxGeometry width="50" height="50" relative="1" as="geometry">
            <mxPoint x="87" y="192.5" as="sourcePoint" />
            <mxPoint x="87" y="152.5" as="targetPoint" />
          </mxGeometry>
        </mxCell>
        <mxCell id="SM7hKs_2msH0aA-1Ox_4-15" value="&lt;b&gt;street&lt;/b&gt;" style="text;html=1;align=left;verticalAlign=middle;whiteSpace=wrap;rounded=0;" parent="1" vertex="1">
          <mxGeometry x="99" y="157.5" width="50" height="30" as="geometry" />
        </mxCell>
        <mxCell id="SM7hKs_2msH0aA-1Ox_4-16" value="&lt;b&gt;&lt;font style=&quot;font-size: 20px;&quot;&gt;Seller&lt;/font&gt;&lt;/b&gt;" style="text;html=1;align=center;verticalAlign=middle;whiteSpace=wrap;rounded=0;" parent="1" vertex="1">
          <mxGeometry x="372" y="111" width="113" height="30" as="geometry" />
        </mxCell>
        <mxCell id="SM7hKs_2msH0aA-1Ox_4-17" value="" style="rounded=0;whiteSpace=wrap;html=1;" parent="1" vertex="1">
          <mxGeometry x="372" y="160" width="98" height="40" as="geometry" />
        </mxCell>
        <mxCell id="SM7hKs_2msH0aA-1Ox_4-18" value="uID" style="text;html=1;align=center;verticalAlign=middle;whiteSpace=wrap;rounded=0;fontStyle=5" parent="1" vertex="1">
          <mxGeometry x="374" y="165" width="27" height="30" as="geometry" />
        </mxCell>
        <mxCell id="SM7hKs_2msH0aA-1Ox_4-19" value="" style="endArrow=none;html=1;rounded=0;" parent="1" edge="1">
          <mxGeometry width="50" height="50" relative="1" as="geometry">
            <mxPoint x="407" y="200" as="sourcePoint" />
            <mxPoint x="407" y="160" as="targetPoint" />
          </mxGeometry>
        </mxCell>
        <mxCell id="SM7hKs_2msH0aA-1Ox_4-20" value="priority&amp;nbsp;" style="text;html=1;align=left;verticalAlign=middle;whiteSpace=wrap;rounded=0;fontStyle=1" parent="1" vertex="1">
          <mxGeometry x="408" y="167.5" width="62" height="25" as="geometry" />
        </mxCell>
        <mxCell id="SM7hKs_2msH0aA-1Ox_4-22" value="" style="endArrow=classic;html=1;rounded=0;edgeStyle=orthogonalEdgeStyle;exitX=0;exitY=0.5;exitDx=0;exitDy=0;" parent="1" source="SM7hKs_2msH0aA-1Ox_4-17" edge="1">
          <mxGeometry width="50" height="50" relative="1" as="geometry">
            <mxPoint x="359" y="190" as="sourcePoint" />
            <mxPoint x="259" y="110" as="targetPoint" />
            <Array as="points">
              <mxPoint x="359" y="180" />
              <mxPoint x="359" y="130" />
              <mxPoint x="259" y="130" />
            </Array>
          </mxGeometry>
        </mxCell>
        <mxCell id="SM7hKs_2msH0aA-1Ox_4-23" value="&lt;font style=&quot;font-size: 20px;&quot;&gt;&lt;b&gt;Product&lt;/b&gt;&lt;/font&gt;" style="text;html=1;align=center;verticalAlign=middle;whiteSpace=wrap;rounded=0;" parent="1" vertex="1">
          <mxGeometry x="799" y="29" width="90" height="30" as="geometry" />
        </mxCell>
        <mxCell id="SM7hKs_2msH0aA-1Ox_4-24" value="" style="rounded=0;whiteSpace=wrap;html=1;" parent="1" vertex="1">
          <mxGeometry x="800" y="69" width="400" height="41" as="geometry" />
        </mxCell>
        <mxCell id="SM7hKs_2msH0aA-1Ox_4-26" value="pID" style="text;html=1;align=center;verticalAlign=middle;whiteSpace=wrap;rounded=0;fontStyle=5" parent="1" vertex="1">
          <mxGeometry x="800" y="74" width="30" height="30" as="geometry" />
        </mxCell>
        <mxCell id="SM7hKs_2msH0aA-1Ox_4-27" value="&lt;b&gt;name&amp;nbsp; &amp;nbsp; sold&amp;nbsp; &amp;nbsp; price&amp;nbsp; &amp;nbsp; cID&amp;nbsp; &amp;nbsp;image&amp;nbsp; &amp;nbsp; available&amp;nbsp; &amp;nbsp;description&lt;/b&gt;" style="text;html=1;align=left;verticalAlign=middle;whiteSpace=wrap;rounded=0;" parent="1" vertex="1">
          <mxGeometry x="853" y="74" width="420" height="30" as="geometry" />
        </mxCell>
        <mxCell id="SM7hKs_2msH0aA-1Ox_4-29" value="" style="endArrow=none;html=1;rounded=0;" parent="1" edge="1">
          <mxGeometry width="50" height="50" relative="1" as="geometry">
            <mxPoint x="843.77" y="109.5" as="sourcePoint" />
            <mxPoint x="843.77" y="69.5" as="targetPoint" />
          </mxGeometry>
        </mxCell>
        <mxCell id="SM7hKs_2msH0aA-1Ox_4-30" value="" style="endArrow=none;html=1;rounded=0;" parent="1" edge="1">
          <mxGeometry width="50" height="50" relative="1" as="geometry">
            <mxPoint x="889" y="110" as="sourcePoint" />
            <mxPoint x="889" y="70" as="targetPoint" />
          </mxGeometry>
        </mxCell>
        <mxCell id="SM7hKs_2msH0aA-1Ox_4-31" value="" style="endArrow=none;html=1;rounded=0;" parent="1" edge="1">
          <mxGeometry width="50" height="50" relative="1" as="geometry">
            <mxPoint x="929" y="110" as="sourcePoint" />
            <mxPoint x="929" y="70" as="targetPoint" />
          </mxGeometry>
        </mxCell>
        <mxCell id="SM7hKs_2msH0aA-1Ox_4-32" value="" style="endArrow=none;html=1;rounded=0;" parent="1" edge="1">
          <mxGeometry width="50" height="50" relative="1" as="geometry">
            <mxPoint x="969" y="109.5" as="sourcePoint" />
            <mxPoint x="969" y="69.5" as="targetPoint" />
          </mxGeometry>
        </mxCell>
        <mxCell id="SM7hKs_2msH0aA-1Ox_4-33" value="" style="endArrow=none;html=1;rounded=0;" parent="1" edge="1">
          <mxGeometry width="50" height="50" relative="1" as="geometry">
            <mxPoint x="999" y="110" as="sourcePoint" />
            <mxPoint x="999" y="70" as="targetPoint" />
          </mxGeometry>
        </mxCell>
        <mxCell id="SM7hKs_2msH0aA-1Ox_4-34" value="" style="endArrow=none;html=1;rounded=0;" parent="1" edge="1">
          <mxGeometry width="50" height="50" relative="1" as="geometry">
            <mxPoint x="1049" y="110" as="sourcePoint" />
            <mxPoint x="1049" y="70" as="targetPoint" />
          </mxGeometry>
        </mxCell>
        <mxCell id="SM7hKs_2msH0aA-1Ox_4-35" value="" style="endArrow=none;html=1;rounded=0;" parent="1" edge="1">
          <mxGeometry width="50" height="50" relative="1" as="geometry">
            <mxPoint x="1108" y="109" as="sourcePoint" />
            <mxPoint x="1108" y="69" as="targetPoint" />
          </mxGeometry>
        </mxCell>
        <mxCell id="SM7hKs_2msH0aA-1Ox_4-40" value="" style="rounded=0;whiteSpace=wrap;html=1;" parent="1" vertex="1">
          <mxGeometry x="853" y="177.5" width="117" height="40" as="geometry" />
        </mxCell>
        <mxCell id="SM7hKs_2msH0aA-1Ox_4-41" value="&lt;font style=&quot;font-size: 20px;&quot;&gt;&lt;span&gt;Category&lt;/span&gt;&lt;/font&gt;" style="text;html=1;align=center;verticalAlign=middle;whiteSpace=wrap;rounded=0;fontStyle=1" parent="1" vertex="1">
          <mxGeometry x="857" y="141" width="90" height="30" as="geometry" />
        </mxCell>
        <mxCell id="SM7hKs_2msH0aA-1Ox_4-42" value="cID" style="text;html=1;align=center;verticalAlign=middle;whiteSpace=wrap;rounded=0;fontStyle=5" parent="1" vertex="1">
          <mxGeometry x="859" y="180" width="38" height="30" as="geometry" />
        </mxCell>
        <mxCell id="SM7hKs_2msH0aA-1Ox_4-43" value="&lt;b&gt;name&lt;/b&gt;" style="text;html=1;align=left;verticalAlign=middle;whiteSpace=wrap;rounded=0;" parent="1" vertex="1">
          <mxGeometry x="916" y="180" width="36" height="30" as="geometry" />
        </mxCell>
        <mxCell id="SM7hKs_2msH0aA-1Ox_4-44" value="" style="endArrow=none;html=1;rounded=0;" parent="1" edge="1">
          <mxGeometry width="50" height="50" relative="1" as="geometry">
            <mxPoint x="897.78" y="217.5" as="sourcePoint" />
            <mxPoint x="897.78" y="177.5" as="targetPoint" />
          </mxGeometry>
        </mxCell>
        <mxCell id="SM7hKs_2msH0aA-1Ox_4-46" value="&lt;b&gt;&lt;font style=&quot;font-size: 20px;&quot;&gt;Review&lt;/font&gt;&lt;/b&gt;" style="text;html=1;align=center;verticalAlign=middle;whiteSpace=wrap;rounded=0;" parent="1" vertex="1">
          <mxGeometry x="192.5" y="230" width="113" height="30" as="geometry" />
        </mxCell>
        <mxCell id="SM7hKs_2msH0aA-1Ox_4-48" value="" style="rounded=0;whiteSpace=wrap;html=1;" parent="1" vertex="1">
          <mxGeometry x="215" y="270" width="248" height="40" as="geometry" />
        </mxCell>
        <mxCell id="SM7hKs_2msH0aA-1Ox_4-49" value="uID" style="text;html=1;align=center;verticalAlign=middle;whiteSpace=wrap;rounded=0;fontStyle=5" parent="1" vertex="1">
          <mxGeometry x="210" y="275" width="60" height="30" as="geometry" />
        </mxCell>
        <mxCell id="U-hPuXXXVYAHYagD1A_h-3" style="edgeStyle=orthogonalEdgeStyle;rounded=0;orthogonalLoop=1;jettySize=auto;html=1;exitX=0.75;exitY=0;exitDx=0;exitDy=0;entryX=0;entryY=0.5;entryDx=0;entryDy=0;" edge="1" parent="1" source="SM7hKs_2msH0aA-1Ox_4-50" target="SM7hKs_2msH0aA-1Ox_4-26">
          <mxGeometry relative="1" as="geometry">
            <Array as="points">
              <mxPoint x="312" y="240" />
              <mxPoint x="789" y="240" />
              <mxPoint x="789" y="89" />
            </Array>
          </mxGeometry>
        </mxCell>
        <mxCell id="SM7hKs_2msH0aA-1Ox_4-50" value="pID" style="text;html=1;align=center;verticalAlign=middle;whiteSpace=wrap;rounded=0;fontStyle=5" parent="1" vertex="1">
          <mxGeometry x="261" y="270" width="68" height="35" as="geometry" />
        </mxCell>
        <mxCell id="SM7hKs_2msH0aA-1Ox_4-51" value="rating&amp;nbsp; &amp;nbsp; &amp;nbsp; &amp;nbsp; &amp;nbsp; review" style="text;html=1;align=left;verticalAlign=middle;whiteSpace=wrap;rounded=0;fontStyle=1" parent="1" vertex="1">
          <mxGeometry x="333" y="277.5" width="140" height="25" as="geometry" />
        </mxCell>
        <mxCell id="SM7hKs_2msH0aA-1Ox_4-52" value="" style="endArrow=none;html=1;rounded=0;" parent="1" edge="1">
          <mxGeometry width="50" height="50" relative="1" as="geometry">
            <mxPoint x="270" y="310" as="sourcePoint" />
            <mxPoint x="270" y="270" as="targetPoint" />
          </mxGeometry>
        </mxCell>
        <mxCell id="SM7hKs_2msH0aA-1Ox_4-53" value="" style="endArrow=none;html=1;rounded=0;" parent="1" edge="1">
          <mxGeometry width="50" height="50" relative="1" as="geometry">
            <mxPoint x="323" y="310" as="sourcePoint" />
            <mxPoint x="323" y="270" as="targetPoint" />
          </mxGeometry>
        </mxCell>
        <mxCell id="SM7hKs_2msH0aA-1Ox_4-54" value="" style="endArrow=none;html=1;rounded=0;" parent="1" edge="1">
          <mxGeometry width="50" height="50" relative="1" as="geometry">
            <mxPoint x="391.2" y="310" as="sourcePoint" />
            <mxPoint x="391.2" y="270" as="targetPoint" />
          </mxGeometry>
        </mxCell>
        <mxCell id="SM7hKs_2msH0aA-1Ox_4-55" value="&lt;span style=&quot;font-size: 20px;&quot;&gt;&lt;b&gt;Cart&lt;/b&gt;&lt;/span&gt;" style="text;html=1;align=center;verticalAlign=middle;whiteSpace=wrap;rounded=0;" parent="1" vertex="1">
          <mxGeometry x="201" y="330" width="113" height="30" as="geometry" />
        </mxCell>
        <mxCell id="SM7hKs_2msH0aA-1Ox_4-56" value="" style="rounded=0;whiteSpace=wrap;html=1;" parent="1" vertex="1">
          <mxGeometry x="219" y="370" width="162" height="40" as="geometry" />
        </mxCell>
        <mxCell id="SM7hKs_2msH0aA-1Ox_4-57" value="uID" style="text;html=1;align=center;verticalAlign=middle;whiteSpace=wrap;rounded=0;fontStyle=5" parent="1" vertex="1">
          <mxGeometry x="221" y="375" width="27" height="30" as="geometry" />
        </mxCell>
        <mxCell id="SM7hKs_2msH0aA-1Ox_4-58" value="" style="endArrow=none;html=1;rounded=0;" parent="1" edge="1">
          <mxGeometry width="50" height="50" relative="1" as="geometry">
            <mxPoint x="254" y="410" as="sourcePoint" />
            <mxPoint x="254" y="370" as="targetPoint" />
          </mxGeometry>
        </mxCell>
        <mxCell id="SM7hKs_2msH0aA-1Ox_4-59" value="quantity" style="text;html=1;align=left;verticalAlign=middle;whiteSpace=wrap;rounded=0;fontStyle=1" parent="1" vertex="1">
          <mxGeometry x="319" y="377.5" width="136" height="25" as="geometry" />
        </mxCell>
        <mxCell id="SM7hKs_2msH0aA-1Ox_4-60" value="" style="endArrow=none;html=1;rounded=0;" parent="1" edge="1">
          <mxGeometry width="50" height="50" relative="1" as="geometry">
            <mxPoint x="310.38" y="410" as="sourcePoint" />
            <mxPoint x="310.38" y="370" as="targetPoint" />
          </mxGeometry>
        </mxCell>
        <mxCell id="SM7hKs_2msH0aA-1Ox_4-61" value="pID" style="text;html=1;align=center;verticalAlign=middle;whiteSpace=wrap;rounded=0;fontStyle=5" parent="1" vertex="1">
          <mxGeometry x="249.5" y="375" width="60" height="30" as="geometry" />
        </mxCell>
        <mxCell id="SM7hKs_2msH0aA-1Ox_4-62" value="&lt;span style=&quot;font-size: 20px;&quot;&gt;&lt;b&gt;Favourite&lt;/b&gt;&lt;/span&gt;" style="text;html=1;align=center;verticalAlign=middle;whiteSpace=wrap;rounded=0;" parent="1" vertex="1">
          <mxGeometry x="208" y="457" width="113" height="30" as="geometry" />
        </mxCell>
        <mxCell id="SM7hKs_2msH0aA-1Ox_4-63" value="" style="rounded=0;whiteSpace=wrap;html=1;" parent="1" vertex="1">
          <mxGeometry x="230.5" y="495" width="87.5" height="40" as="geometry" />
        </mxCell>
        <mxCell id="SM7hKs_2msH0aA-1Ox_4-64" value="uID" style="text;html=1;align=center;verticalAlign=middle;whiteSpace=wrap;rounded=0;fontStyle=5" parent="1" vertex="1">
          <mxGeometry x="232.5" y="500" width="27" height="30" as="geometry" />
        </mxCell>
        <mxCell id="SM7hKs_2msH0aA-1Ox_4-65" value="" style="endArrow=none;html=1;rounded=0;" parent="1" edge="1">
          <mxGeometry width="50" height="50" relative="1" as="geometry">
            <mxPoint x="265.5" y="535" as="sourcePoint" />
            <mxPoint x="265.5" y="495" as="targetPoint" />
          </mxGeometry>
        </mxCell>
        <mxCell id="SM7hKs_2msH0aA-1Ox_4-68" value="pID" style="text;html=1;align=center;verticalAlign=middle;whiteSpace=wrap;rounded=0;fontStyle=5" parent="1" vertex="1">
          <mxGeometry x="261" y="500" width="60" height="30" as="geometry" />
        </mxCell>
        <mxCell id="SM7hKs_2msH0aA-1Ox_4-69" value="&lt;span style=&quot;font-size: 20px;&quot;&gt;&lt;b&gt;Flagged_B&lt;/b&gt;&lt;/span&gt;" style="text;html=1;align=center;verticalAlign=middle;whiteSpace=wrap;rounded=0;" parent="1" vertex="1">
          <mxGeometry x="204" y="540" width="145" height="30" as="geometry" />
        </mxCell>
        <mxCell id="SM7hKs_2msH0aA-1Ox_4-70" value="" style="rounded=0;whiteSpace=wrap;html=1;" parent="1" vertex="1">
          <mxGeometry x="226.5" y="578" width="87.5" height="40" as="geometry" />
        </mxCell>
        <mxCell id="SM7hKs_2msH0aA-1Ox_4-71" value="SuID" style="text;html=1;align=center;verticalAlign=middle;whiteSpace=wrap;rounded=0;fontStyle=5" parent="1" vertex="1">
          <mxGeometry x="228.5" y="583" width="27" height="30" as="geometry" />
        </mxCell>
        <mxCell id="SM7hKs_2msH0aA-1Ox_4-72" value="" style="endArrow=none;html=1;rounded=0;" parent="1" edge="1">
          <mxGeometry width="50" height="50" relative="1" as="geometry">
            <mxPoint x="261.5" y="618" as="sourcePoint" />
            <mxPoint x="261.5" y="578" as="targetPoint" />
          </mxGeometry>
        </mxCell>
        <mxCell id="SM7hKs_2msH0aA-1Ox_4-73" value="BuID" style="text;html=1;align=center;verticalAlign=middle;whiteSpace=wrap;rounded=0;fontStyle=5" parent="1" vertex="1">
          <mxGeometry x="257" y="583" width="60" height="30" as="geometry" />
        </mxCell>
        <mxCell id="SM7hKs_2msH0aA-1Ox_4-74" value="&lt;span style=&quot;font-size: 20px;&quot;&gt;&lt;b&gt;Flagged_S&lt;/b&gt;&lt;/span&gt;" style="text;html=1;align=center;verticalAlign=middle;whiteSpace=wrap;rounded=0;" parent="1" vertex="1">
          <mxGeometry x="197.75" y="674" width="145" height="30" as="geometry" />
        </mxCell>
        <mxCell id="SM7hKs_2msH0aA-1Ox_4-75" value="" style="rounded=0;whiteSpace=wrap;html=1;" parent="1" vertex="1">
          <mxGeometry x="227.5" y="715" width="87.5" height="40" as="geometry" />
        </mxCell>
        <mxCell id="SM7hKs_2msH0aA-1Ox_4-76" value="BuID" style="text;html=1;align=center;verticalAlign=middle;whiteSpace=wrap;rounded=0;fontStyle=5" parent="1" vertex="1">
          <mxGeometry x="229.5" y="720" width="27" height="30" as="geometry" />
        </mxCell>
        <mxCell id="SM7hKs_2msH0aA-1Ox_4-77" value="" style="endArrow=none;html=1;rounded=0;" parent="1" edge="1">
          <mxGeometry width="50" height="50" relative="1" as="geometry">
            <mxPoint x="262.5" y="755" as="sourcePoint" />
            <mxPoint x="262.5" y="715" as="targetPoint" />
          </mxGeometry>
        </mxCell>
        <mxCell id="SM7hKs_2msH0aA-1Ox_4-78" value="SuID" style="text;html=1;align=center;verticalAlign=middle;whiteSpace=wrap;rounded=0;fontStyle=5" parent="1" vertex="1">
          <mxGeometry x="258" y="720" width="60" height="30" as="geometry" />
        </mxCell>
        <mxCell id="SM7hKs_2msH0aA-1Ox_4-79" value="" style="rounded=0;whiteSpace=wrap;html=1;" parent="1" vertex="1">
          <mxGeometry x="809" y="262" width="350" height="40" as="geometry" />
        </mxCell>
        <mxCell id="SM7hKs_2msH0aA-1Ox_4-80" value="&lt;font style=&quot;font-size: 20px;&quot;&gt;&lt;span&gt;Order&lt;/span&gt;&lt;/font&gt;" style="text;html=1;align=center;verticalAlign=middle;whiteSpace=wrap;rounded=0;fontStyle=1" parent="1" vertex="1">
          <mxGeometry x="809" y="221" width="90" height="30" as="geometry" />
        </mxCell>
        <mxCell id="SM7hKs_2msH0aA-1Ox_4-81" value="oID" style="text;html=1;align=center;verticalAlign=middle;whiteSpace=wrap;rounded=0;fontStyle=5" parent="1" vertex="1">
          <mxGeometry x="799" y="268" width="62" height="33" as="geometry" />
        </mxCell>
        <mxCell id="SM7hKs_2msH0aA-1Ox_4-82" value="&lt;b&gt;BuID&amp;nbsp; &amp;nbsp; &amp;nbsp;payment&amp;nbsp; &amp;nbsp; location&amp;nbsp; &amp;nbsp; &amp;nbsp; &amp;nbsp;status&amp;nbsp; &amp;nbsp; &amp;nbsp; date_time&amp;nbsp; &amp;nbsp;&lt;/b&gt;" style="text;html=1;align=left;verticalAlign=middle;whiteSpace=wrap;rounded=0;" parent="1" vertex="1">
          <mxGeometry x="857" y="267" width="353.5" height="30" as="geometry" />
        </mxCell>
        <mxCell id="SM7hKs_2msH0aA-1Ox_4-83" value="" style="endArrow=none;html=1;rounded=0;" parent="1" edge="1">
          <mxGeometry width="50" height="50" relative="1" as="geometry">
            <mxPoint x="853.78" y="302" as="sourcePoint" />
            <mxPoint x="853.78" y="262" as="targetPoint" />
          </mxGeometry>
        </mxCell>
        <mxCell id="SM7hKs_2msH0aA-1Ox_4-84" value="" style="endArrow=none;html=1;rounded=0;" parent="1" edge="1">
          <mxGeometry width="50" height="50" relative="1" as="geometry">
            <mxPoint x="899" y="302" as="sourcePoint" />
            <mxPoint x="899" y="262" as="targetPoint" />
          </mxGeometry>
        </mxCell>
        <mxCell id="SM7hKs_2msH0aA-1Ox_4-85" value="" style="rounded=0;whiteSpace=wrap;html=1;" parent="1" vertex="1">
          <mxGeometry x="844" y="380.5" width="236" height="40" as="geometry" />
        </mxCell>
        <mxCell id="SM7hKs_2msH0aA-1Ox_4-86" value="&lt;span style=&quot;font-size: 20px;&quot;&gt;Sub_order&lt;/span&gt;" style="text;html=1;align=center;verticalAlign=middle;whiteSpace=wrap;rounded=0;fontStyle=1" parent="1" vertex="1">
          <mxGeometry x="805.5" y="339.5" width="189" height="30" as="geometry" />
        </mxCell>
        <mxCell id="SM7hKs_2msH0aA-1Ox_4-87" value="soID" style="text;html=1;align=center;verticalAlign=middle;whiteSpace=wrap;rounded=0;fontStyle=5" parent="1" vertex="1">
          <mxGeometry x="834" y="386.5" width="62" height="33" as="geometry" />
        </mxCell>
        <mxCell id="SM7hKs_2msH0aA-1Ox_4-89" value="" style="endArrow=none;html=1;rounded=0;" parent="1" edge="1">
          <mxGeometry width="50" height="50" relative="1" as="geometry">
            <mxPoint x="888.78" y="420.5" as="sourcePoint" />
            <mxPoint x="888.78" y="380.5" as="targetPoint" />
          </mxGeometry>
        </mxCell>
        <mxCell id="SM7hKs_2msH0aA-1Ox_4-90" value="" style="endArrow=none;html=1;rounded=0;" parent="1" edge="1">
          <mxGeometry width="50" height="50" relative="1" as="geometry">
            <mxPoint x="934" y="420.5" as="sourcePoint" />
            <mxPoint x="934" y="380.5" as="targetPoint" />
          </mxGeometry>
        </mxCell>
        <mxCell id="SM7hKs_2msH0aA-1Ox_4-93" value="" style="endArrow=none;html=1;rounded=0;" parent="1" edge="1">
          <mxGeometry width="50" height="50" relative="1" as="geometry">
            <mxPoint x="958" y="302" as="sourcePoint" />
            <mxPoint x="958" y="262" as="targetPoint" />
          </mxGeometry>
        </mxCell>
        <mxCell id="SM7hKs_2msH0aA-1Ox_4-94" value="" style="endArrow=none;html=1;rounded=0;" parent="1" edge="1">
          <mxGeometry width="50" height="50" relative="1" as="geometry">
            <mxPoint x="1028" y="301" as="sourcePoint" />
            <mxPoint x="1028" y="261" as="targetPoint" />
          </mxGeometry>
        </mxCell>
        <mxCell id="SM7hKs_2msH0aA-1Ox_4-95" value="" style="endArrow=none;html=1;rounded=0;" parent="1" edge="1">
          <mxGeometry width="50" height="50" relative="1" as="geometry">
            <mxPoint x="1078" y="301" as="sourcePoint" />
            <mxPoint x="1078" y="261" as="targetPoint" />
          </mxGeometry>
        </mxCell>
        <mxCell id="SM7hKs_2msH0aA-1Ox_4-108" value="" style="endArrow=none;html=1;rounded=0;" parent="1" edge="1">
          <mxGeometry width="50" height="50" relative="1" as="geometry">
            <mxPoint x="1013" y="419.5" as="sourcePoint" />
            <mxPoint x="1013" y="379.5" as="targetPoint" />
          </mxGeometry>
        </mxCell>
        <mxCell id="SM7hKs_2msH0aA-1Ox_4-113" value="" style="rounded=0;whiteSpace=wrap;html=1;" parent="1" vertex="1">
          <mxGeometry x="866" y="639" width="199" height="40" as="geometry" />
        </mxCell>
        <mxCell id="SM7hKs_2msH0aA-1Ox_4-114" value="oiID" style="text;html=1;align=center;verticalAlign=middle;whiteSpace=wrap;rounded=0;fontStyle=5" parent="1" vertex="1">
          <mxGeometry x="859" y="641" width="62" height="33" as="geometry" />
        </mxCell>
        <mxCell id="SM7hKs_2msH0aA-1Ox_4-115" value="&lt;b&gt;soID&amp;nbsp; &amp;nbsp; &amp;nbsp; &amp;nbsp;pID&amp;nbsp; &amp;nbsp; &amp;nbsp; quantity&lt;/b&gt;" style="text;html=1;align=left;verticalAlign=middle;whiteSpace=wrap;rounded=0;" parent="1" vertex="1">
          <mxGeometry x="919.5" y="641" width="188.5" height="30" as="geometry" />
        </mxCell>
        <mxCell id="SM7hKs_2msH0aA-1Ox_4-116" value="" style="endArrow=none;html=1;rounded=0;" parent="1" edge="1">
          <mxGeometry width="50" height="50" relative="1" as="geometry">
            <mxPoint x="910.78" y="679" as="sourcePoint" />
            <mxPoint x="910.78" y="639" as="targetPoint" />
          </mxGeometry>
        </mxCell>
        <mxCell id="SM7hKs_2msH0aA-1Ox_4-117" value="" style="endArrow=none;html=1;rounded=0;" parent="1" edge="1">
          <mxGeometry width="50" height="50" relative="1" as="geometry">
            <mxPoint x="959" y="679" as="sourcePoint" />
            <mxPoint x="959" y="639" as="targetPoint" />
          </mxGeometry>
        </mxCell>
        <mxCell id="SM7hKs_2msH0aA-1Ox_4-118" value="&lt;span style=&quot;font-size: 20px;&quot;&gt;Order_Item&lt;/span&gt;" style="text;html=1;align=center;verticalAlign=middle;whiteSpace=wrap;rounded=0;fontStyle=1" parent="1" vertex="1">
          <mxGeometry x="830" y="601" width="189" height="30" as="geometry" />
        </mxCell>
        <mxCell id="1hmNS7KQ05RDMebyuneM-1" value="" style="endArrow=none;html=1;rounded=0;" parent="1" edge="1">
          <mxGeometry width="50" height="50" relative="1" as="geometry">
            <mxPoint x="1003" y="680" as="sourcePoint" />
            <mxPoint x="1003" y="640" as="targetPoint" />
          </mxGeometry>
        </mxCell>
        <mxCell id="SM7hKs_2msH0aA-1Ox_4-88" value="&lt;b&gt;oID&amp;nbsp; &amp;nbsp; &amp;nbsp;SuID&amp;nbsp; &amp;nbsp; status&amp;nbsp; &amp;nbsp;isExpress&lt;/b&gt;" style="text;html=1;align=left;verticalAlign=middle;whiteSpace=wrap;rounded=0;" parent="1" vertex="1">
          <mxGeometry x="899" y="385.5" width="239.5" height="30" as="geometry" />
        </mxCell>
        <mxCell id="U-hPuXXXVYAHYagD1A_h-7" value="minDays" style="rounded=0;whiteSpace=wrap;html=1;" vertex="1" parent="1">
          <mxGeometry x="1200" y="69" width="60" height="41" as="geometry" />
        </mxCell>
        <mxCell id="U-hPuXXXVYAHYagD1A_h-8" value="maxDays" style="rounded=0;whiteSpace=wrap;html=1;" vertex="1" parent="1">
          <mxGeometry x="1261" y="69" width="59" height="41" as="geometry" />
        </mxCell>
        <mxCell id="U-hPuXXXVYAHYagD1A_h-9" value="" style="endArrow=classic;html=1;rounded=0;exitX=0;exitY=0.5;exitDx=0;exitDy=0;entryX=0.458;entryY=1.097;entryDx=0;entryDy=0;entryPerimeter=0;" edge="1" parent="1" source="SM7hKs_2msH0aA-1Ox_4-40" target="SM7hKs_2msH0aA-1Ox_4-24">
          <mxGeometry width="50" height="50" relative="1" as="geometry">
            <mxPoint x="999" y="300" as="sourcePoint" />
            <mxPoint x="1049" y="250" as="targetPoint" />
            <Array as="points">
              <mxPoint x="819" y="198" />
              <mxPoint x="819" y="140" />
              <mxPoint x="984" y="140" />
            </Array>
          </mxGeometry>
        </mxCell>
        <mxCell id="U-hPuXXXVYAHYagD1A_h-11" value="" style="endArrow=classic;html=1;rounded=0;exitX=0.427;exitY=1.036;exitDx=0;exitDy=0;exitPerimeter=0;entryX=0.109;entryY=1.012;entryDx=0;entryDy=0;entryPerimeter=0;" edge="1" parent="1" source="SM7hKs_2msH0aA-1Ox_4-85" target="SM7hKs_2msH0aA-1Ox_4-17">
          <mxGeometry width="50" height="50" relative="1" as="geometry">
            <mxPoint x="599" y="430" as="sourcePoint" />
            <mxPoint x="99" y="220" as="targetPoint" />
            <Array as="points">
              <mxPoint x="945" y="440" />
              <mxPoint x="559" y="440" />
              <mxPoint x="559" y="260" />
              <mxPoint x="383" y="260" />
            </Array>
          </mxGeometry>
        </mxCell>
        <mxCell id="U-hPuXXXVYAHYagD1A_h-13" value="" style="endArrow=classic;html=1;rounded=0;entryX=0.5;entryY=1;entryDx=0;entryDy=0;" edge="1" parent="1" target="SM7hKs_2msH0aA-1Ox_4-81">
          <mxGeometry width="50" height="50" relative="1" as="geometry">
            <mxPoint x="909" y="380" as="sourcePoint" />
            <mxPoint x="749" y="380" as="targetPoint" />
            <Array as="points">
              <mxPoint x="909" y="370" />
              <mxPoint x="829" y="370" />
            </Array>
          </mxGeometry>
        </mxCell>
        <mxCell id="U-hPuXXXVYAHYagD1A_h-14" value="" style="endArrow=classic;html=1;rounded=0;exitX=0.317;exitY=1.025;exitDx=0;exitDy=0;exitPerimeter=0;entryX=0.25;entryY=1;entryDx=0;entryDy=0;" edge="1" parent="1" source="SM7hKs_2msH0aA-1Ox_4-113" target="SM7hKs_2msH0aA-1Ox_4-87">
          <mxGeometry width="50" height="50" relative="1" as="geometry">
            <mxPoint x="939" y="640" as="sourcePoint" />
            <mxPoint x="779" y="480" as="targetPoint" />
            <Array as="points">
              <mxPoint x="929" y="710" />
              <mxPoint x="849" y="710" />
              <mxPoint x="849" y="610" />
              <mxPoint x="849" y="520" />
            </Array>
          </mxGeometry>
        </mxCell>
        <mxCell id="U-hPuXXXVYAHYagD1A_h-15" value="" style="endArrow=classic;html=1;rounded=0;entryX=0;entryY=1;entryDx=0;entryDy=0;" edge="1" parent="1" target="SM7hKs_2msH0aA-1Ox_4-26">
          <mxGeometry width="50" height="50" relative="1" as="geometry">
            <mxPoint x="289" y="374" as="sourcePoint" />
            <mxPoint x="769" y="170" as="targetPoint" />
            <Array as="points">
              <mxPoint x="289" y="350" />
              <mxPoint x="769" y="350" />
              <mxPoint x="769" y="104" />
            </Array>
          </mxGeometry>
        </mxCell>
        <mxCell id="U-hPuXXXVYAHYagD1A_h-16" value="" style="endArrow=classic;html=1;rounded=0;exitX=1;exitY=0.5;exitDx=0;exitDy=0;entryX=0;entryY=0;entryDx=0;entryDy=0;" edge="1" parent="1" source="SM7hKs_2msH0aA-1Ox_4-68" target="SM7hKs_2msH0aA-1Ox_4-26">
          <mxGeometry width="50" height="50" relative="1" as="geometry">
            <mxPoint x="629" y="350" as="sourcePoint" />
            <mxPoint x="679" y="300" as="targetPoint" />
            <Array as="points">
              <mxPoint x="689" y="515" />
              <mxPoint x="689" y="74" />
            </Array>
          </mxGeometry>
        </mxCell>
        <mxCell id="U-hPuXXXVYAHYagD1A_h-22" value="" style="endArrow=classic;html=1;rounded=0;exitX=0;exitY=0.75;exitDx=0;exitDy=0;entryX=0.198;entryY=1.003;entryDx=0;entryDy=0;entryPerimeter=0;" edge="1" parent="1" source="SM7hKs_2msH0aA-1Ox_4-71" target="SM7hKs_2msH0aA-1Ox_4-17">
          <mxGeometry width="50" height="50" relative="1" as="geometry">
            <mxPoint x="240" y="450" as="sourcePoint" />
            <mxPoint x="450" y="450" as="targetPoint" />
            <Array as="points">
              <mxPoint x="200" y="605" />
              <mxPoint x="200" y="450" />
              <mxPoint x="490" y="450" />
              <mxPoint x="490" y="220" />
              <mxPoint x="440" y="220" />
              <mxPoint x="391" y="220" />
            </Array>
          </mxGeometry>
        </mxCell>
        <mxCell id="U-hPuXXXVYAHYagD1A_h-23" value="" style="endArrow=classic;html=1;rounded=0;exitX=0.153;exitY=0.994;exitDx=0;exitDy=0;entryX=0.051;entryY=0.992;entryDx=0;entryDy=0;exitPerimeter=0;entryPerimeter=0;" edge="1" parent="1" source="SM7hKs_2msH0aA-1Ox_4-70" target="SM7hKs_2msH0aA-1Ox_4-17">
          <mxGeometry width="50" height="50" relative="1" as="geometry">
            <mxPoint x="270" y="580" as="sourcePoint" />
            <mxPoint x="400" y="440" as="targetPoint" />
            <Array as="points">
              <mxPoint x="240" y="640" />
              <mxPoint x="470" y="640" />
              <mxPoint x="470" y="250" />
              <mxPoint x="420" y="250" />
              <mxPoint x="377" y="250" />
            </Array>
          </mxGeometry>
        </mxCell>
        <mxCell id="U-hPuXXXVYAHYagD1A_h-26" value="" style="endArrow=classic;html=1;rounded=0;exitX=1;exitY=0;exitDx=0;exitDy=0;" edge="1" parent="1" source="SM7hKs_2msH0aA-1Ox_4-78">
          <mxGeometry width="50" height="50" relative="1" as="geometry">
            <mxPoint x="440" y="680" as="sourcePoint" />
            <mxPoint x="403" y="200" as="targetPoint" />
            <Array as="points">
              <mxPoint x="510" y="720" />
              <mxPoint x="510" y="230" />
              <mxPoint x="403" y="230" />
            </Array>
          </mxGeometry>
        </mxCell>
        <mxCell id="U-hPuXXXVYAHYagD1A_h-32" value="" style="endArrow=none;html=1;rounded=0;exitX=0.492;exitY=1.021;exitDx=0;exitDy=0;exitPerimeter=0;" edge="1" parent="1">
          <mxGeometry width="50" height="50" relative="1" as="geometry">
            <mxPoint x="965.4920000000001" y="421.17" as="sourcePoint" />
            <mxPoint x="965.38" y="379.83" as="targetPoint" />
          </mxGeometry>
        </mxCell>
        <mxCell id="U-hPuXXXVYAHYagD1A_h-33" value="profile_image" style="rounded=0;whiteSpace=wrap;html=1;" vertex="1" parent="1">
          <mxGeometry x="450" y="69.5" width="120" height="40" as="geometry" />
        </mxCell>
        <mxCell id="U-hPuXXXVYAHYagD1A_h-35" value="province" style="rounded=0;whiteSpace=wrap;html=1;" vertex="1" parent="1">
          <mxGeometry x="160" y="152.5" width="70" height="47.5" as="geometry" />
        </mxCell>
        <mxCell id="U-hPuXXXVYAHYagD1A_h-36" value="governorate" style="rounded=0;whiteSpace=wrap;html=1;" vertex="1" parent="1">
          <mxGeometry x="230" y="152.5" width="90" height="47.5" as="geometry" />
        </mxCell>
        <mxCell id="U-hPuXXXVYAHYagD1A_h-37" value="" style="endArrow=classic;html=1;rounded=0;exitX=0.25;exitY=0;exitDx=0;exitDy=0;entryX=0;entryY=0.5;entryDx=0;entryDy=0;" edge="1" parent="1" source="SM7hKs_2msH0aA-1Ox_4-11" target="SM7hKs_2msH0aA-1Ox_4-3">
          <mxGeometry width="50" height="50" relative="1" as="geometry">
            <mxPoint x="80" y="180" as="sourcePoint" />
            <mxPoint x="130" y="130" as="targetPoint" />
            <Array as="points">
              <mxPoint x="64" y="140" />
              <mxPoint x="200" y="140" />
              <mxPoint x="200" y="90" />
            </Array>
          </mxGeometry>
        </mxCell>
        <mxCell id="U-hPuXXXVYAHYagD1A_h-38" value="" style="endArrow=classic;html=1;rounded=0;exitX=0;exitY=0.25;exitDx=0;exitDy=0;entryX=0.303;entryY=0.995;entryDx=0;entryDy=0;entryPerimeter=0;" edge="1" parent="1" source="SM7hKs_2msH0aA-1Ox_4-49" target="SM7hKs_2msH0aA-1Ox_4-11">
          <mxGeometry width="50" height="50" relative="1" as="geometry">
            <mxPoint x="200" y="260" as="sourcePoint" />
            <mxPoint x="250" y="210" as="targetPoint" />
            <Array as="points">
              <mxPoint x="70" y="283" />
            </Array>
          </mxGeometry>
        </mxCell>
        <mxCell id="U-hPuXXXVYAHYagD1A_h-39" value="" style="endArrow=classic;html=1;rounded=0;exitX=0.75;exitY=1;exitDx=0;exitDy=0;entryX=0.063;entryY=1.021;entryDx=0;entryDy=0;entryPerimeter=0;" edge="1" parent="1" source="SM7hKs_2msH0aA-1Ox_4-70" target="SM7hKs_2msH0aA-1Ox_4-11">
          <mxGeometry width="50" height="50" relative="1" as="geometry">
            <mxPoint x="340" y="650" as="sourcePoint" />
            <mxPoint x="110" y="660" as="targetPoint" />
            <Array as="points">
              <mxPoint x="292" y="660" />
              <mxPoint x="40" y="660" />
            </Array>
          </mxGeometry>
        </mxCell>
        <mxCell id="U-hPuXXXVYAHYagD1A_h-40" value="" style="endArrow=classic;html=1;rounded=0;exitX=0;exitY=0.25;exitDx=0;exitDy=0;entryX=0.167;entryY=0.985;entryDx=0;entryDy=0;entryPerimeter=0;" edge="1" parent="1" source="SM7hKs_2msH0aA-1Ox_4-76" target="SM7hKs_2msH0aA-1Ox_4-11">
          <mxGeometry width="50" height="50" relative="1" as="geometry">
            <mxPoint x="220" y="790" as="sourcePoint" />
            <mxPoint x="90" y="240" as="targetPoint" />
            <Array as="points">
              <mxPoint x="53" y="730" />
            </Array>
          </mxGeometry>
        </mxCell>
        <mxCell id="U-hPuXXXVYAHYagD1A_h-41" value="" style="endArrow=classic;html=1;rounded=0;exitX=0.196;exitY=1.012;exitDx=0;exitDy=0;exitPerimeter=0;entryX=0.384;entryY=1.019;entryDx=0;entryDy=0;entryPerimeter=0;" edge="1" parent="1" source="SM7hKs_2msH0aA-1Ox_4-79" target="SM7hKs_2msH0aA-1Ox_4-11">
          <mxGeometry width="50" height="50" relative="1" as="geometry">
            <mxPoint x="700" y="340" as="sourcePoint" />
            <mxPoint x="750" y="290" as="targetPoint" />
            <Array as="points">
              <mxPoint x="878" y="320" />
              <mxPoint x="80" y="320" />
            </Array>
          </mxGeometry>
        </mxCell>
        <mxCell id="U-hPuXXXVYAHYagD1A_h-42" value="" style="endArrow=classic;html=1;rounded=0;exitX=0;exitY=0.5;exitDx=0;exitDy=0;entryX=0;entryY=0;entryDx=0;entryDy=0;" edge="1" parent="1" source="SM7hKs_2msH0aA-1Ox_4-56" target="SM7hKs_2msH0aA-1Ox_4-13">
          <mxGeometry width="50" height="50" relative="1" as="geometry">
            <mxPoint x="90" y="310" as="sourcePoint" />
            <mxPoint x="140" y="260" as="targetPoint" />
            <Array as="points">
              <mxPoint x="120" y="390" />
              <mxPoint x="20" y="390" />
              <mxPoint x="20" y="160" />
            </Array>
          </mxGeometry>
        </mxCell>
        <mxCell id="U-hPuXXXVYAHYagD1A_h-43" value="" style="endArrow=classic;html=1;rounded=0;entryX=0;entryY=0.75;entryDx=0;entryDy=0;" edge="1" parent="1" target="SM7hKs_2msH0aA-1Ox_4-13">
          <mxGeometry width="50" height="50" relative="1" as="geometry">
            <mxPoint x="230" y="508" as="sourcePoint" />
            <mxPoint x="110" y="270" as="targetPoint" />
            <Array as="points">
              <mxPoint x="10" y="510" />
              <mxPoint x="10" y="183" />
            </Array>
          </mxGeometry>
        </mxCell>
        <mxCell id="U-hPuXXXVYAHYagD1A_h-44" value="&lt;span style=&quot;font-size: 20px;&quot;&gt;Locations&lt;/span&gt;" style="text;html=1;align=center;verticalAlign=middle;whiteSpace=wrap;rounded=0;fontStyle=1" vertex="1" parent="1">
          <mxGeometry x="525" y="674" width="189" height="30" as="geometry" />
        </mxCell>
        <mxCell id="U-hPuXXXVYAHYagD1A_h-45" value="&lt;u&gt;BUID&lt;/u&gt;" style="rounded=0;whiteSpace=wrap;html=1;" vertex="1" parent="1">
          <mxGeometry x="565" y="720" width="70" height="30" as="geometry" />
        </mxCell>
        <mxCell id="U-hPuXXXVYAHYagD1A_h-46" value="&lt;u&gt;location&lt;/u&gt;" style="rounded=0;whiteSpace=wrap;html=1;" vertex="1" parent="1">
          <mxGeometry x="635" y="720" width="70" height="30" as="geometry" />
        </mxCell>
        <mxCell id="U-hPuXXXVYAHYagD1A_h-47" value="cost" style="rounded=0;whiteSpace=wrap;html=1;" vertex="1" parent="1">
          <mxGeometry x="706" y="720" width="59" height="30" as="geometry" />
        </mxCell>
        <mxCell id="U-hPuXXXVYAHYagD1A_h-48" value="" style="endArrow=classic;html=1;rounded=0;exitX=0;exitY=0.25;exitDx=0;exitDy=0;entryX=0;entryY=0.75;entryDx=0;entryDy=0;" edge="1" parent="1" source="U-hPuXXXVYAHYagD1A_h-45" target="SM7hKs_2msH0aA-1Ox_4-18">
          <mxGeometry width="50" height="50" relative="1" as="geometry">
            <mxPoint x="370" y="580" as="sourcePoint" />
            <mxPoint x="420" y="530" as="targetPoint" />
            <Array as="points">
              <mxPoint x="550" y="730" />
              <mxPoint x="550" y="210" />
              <mxPoint x="360" y="210" />
              <mxPoint x="360" y="188" />
            </Array>
          </mxGeometry>
        </mxCell>
        <mxCell id="U-hPuXXXVYAHYagD1A_h-49" value="" style="endArrow=classic;html=1;rounded=0;exitX=0.576;exitY=1.042;exitDx=0;exitDy=0;exitPerimeter=0;entryX=0.053;entryY=1;entryDx=0;entryDy=0;entryPerimeter=0;" edge="1" parent="1" source="SM7hKs_2msH0aA-1Ox_4-113" target="SM7hKs_2msH0aA-1Ox_4-24">
          <mxGeometry width="50" height="50" relative="1" as="geometry">
            <mxPoint x="640" y="560" as="sourcePoint" />
            <mxPoint x="690" y="510" as="targetPoint" />
            <Array as="points">
              <mxPoint x="981" y="750" />
              <mxPoint x="800" y="750" />
              <mxPoint x="800" y="130" />
              <mxPoint x="824" y="130" />
            </Array>
          </mxGeometry>
        </mxCell>
        <mxCell id="U-hPuXXXVYAHYagD1A_h-50" value="last_login" style="rounded=0;whiteSpace=wrap;html=1;" vertex="1" parent="1">
          <mxGeometry x="570" y="69.5" width="80" height="40.5" as="geometry" />
        </mxCell>
        <mxCell id="U-hPuXXXVYAHYagD1A_h-52" value="hasExpress" style="rounded=0;whiteSpace=wrap;html=1;" vertex="1" parent="1">
          <mxGeometry x="470" y="161" width="120" height="39" as="geometry" />
        </mxCell>
      </root>
    </mxGraphModel>
  </diagram>
</mxfile>
